inDegrees=yes
name=ik_S44_A03_T01
DataType=double
version=3
OpenSimVersion=4.3-2021-08-27-4bc7ad9
endheader
time	pelvis_tilt	pelvis_list	pelvis_rotation	pelvis_tx	pelvis_ty	pelvis_tz	hip_flexion_r	hip_adduction_r	hip_rotation_r	knee_angle_r	knee_angle_r_beta	ankle_angle_r	subtalar_angle_r	mtp_angle_r	hip_flexion_l	hip_adduction_l	hip_rotation_l	knee_angle_l	knee_angle_l_beta	ankle_angle_l	subtalar_angle_l	mtp_angle_l	lumbar_extension	lumbar_bending	lumbar_rotation	arm_flex_r	arm_add_r	arm_rot_r	elbow_flex_r	pro_sup_r	wrist_flex_r	wrist_dev_r	arm_flex_l	arm_add_l	arm_rot_l	elbow_flex_l	pro_sup_l	wrist_flex_l	wrist_dev_l
13.05999999999981	-1.753107532620203	-1.037638686402969	98.26502979505932	0	0.9399999999999999	0	18.34093381389563	-2.141693558241838	-6.810822587217401	49.42533326642222	0.8626347993945515	0	0	0	6.96230853045568	6.01802640062498	-8.610811515035483	7.427048100018856	0.1296264430493182	0	0	0	0	0	0	32.32249631623669	-32.32249631623669	4.434984540385203	77.01804709302236	85.56501570770091	0	0	32.32249631623669	-32.32249631623669	4.434984540385203	77.01804709302236	85.565015707596	0	0
13.07999999999981	-1.668188218282807	-0.9378746468329952	98.50201167012237	0	0.9399999999999999	0	19.85685125428807	-1.205674415301341	-6.040888166939495	47.32151185101883	0.825916188821795	0	0	0	6.243375754634491	5.99086440876285	-8.244295246808253	7.376416779413741	0.1287427598001261	0	0	0	0	0	0	32.36197863799496	-32.36197863799496	4.438031242471793	77.0612526521632	85.56196900576687	0	0	32.36197863799496	-32.36197863799496	4.438031242471793	77.0612526521632	85.56196900566255	0	0
13.09999999999981	-1.415093206942093	-0.8221233021502302	98.88926025123386	0	0.9399999999999999	0	21.28173557231684	-0.2802687094441689	-5.185276692085842	44.99414206050177	0.7852959230658214	0	0	0	5.597795012132051	5.800672495955498	-7.859244100184597	7.447793381873087	0.1299885165219287	0	0	0	0	0	0	32.39861187346477	-32.39861187346477	4.440839019126964	77.10106362996265	85.55916122925208	0	0	32.39861187346477	-32.39861187346477	4.440839019126964	77.10106362996265	85.55916122914833	0	0
13.11999999999981	-1.169552225759353	-0.6624854246182759	99.2007592167588	0	0.9399999999999999	0	22.42424084873307	0.5086309562521505	-4.320113018208076	42.44911752892551	0.7408768654457893	0	0	0	4.84753447277375	5.577911185253409	-7.418132484175116	7.428872013109999	0.1296582763380288	0	0	0	0	0	0	32.42811025166588	-32.42811025166588	4.443095096344754	77.13305014721968	85.55690515214705	0	0	32.42811025166588	-32.42811025166588	4.443095096344754	77.13305014721968	85.55690515204371	0	0
13.13999999999981	-1.049588979090806	-0.491918211555459	99.50688371797044	0	0.9399999999999999	0	23.17622341099991	0.9080181642550551	-3.875844845431942	39.10109798710322	0.6824429010198785	0	0	0	4.135579068390276	5.440200034005525	-7.163477433824383	7.33134933849402	0.1279561845706289	0	0	0	0	0	0	32.43246124376639	-32.43246124376639	4.443478947006976	77.13850912001594	85.55652130150443	0	0	32.43246124376639	-32.43246124376639	4.443478947006976	77.13850912001594	85.5565213014012	0	0
13.15999999999981	-1.025797254346198	-0.1638400352224503	99.82049807540129	0	0.9399999999999999	0	23.544178418672	1.150607161580854	-3.723540128928176	35.5365816384488	0.6202303544946928	0	0	0	3.753665511242381	5.367300087680643	-6.888381838824905	7.958441432146375	0.1389010063180871	0	0	0	0	0	0	32.43705713777575	-32.43705713777575	4.44388396804019	77.14426900466293	85.55611628049193	0	0	32.43705713777575	-32.43705713777575	4.44388396804019	77.14426900466293	85.55611628038878	0	0
13.17999999999981	-1.04167595765322	0.009655468181605968	99.96592091788202	0	0.9399999999999999	0	23.73276427046789	1.386666501663046	-3.409814902868019	35.78409665840693	0.6245503065411016	0	0	0	2.964029867020737	5.40572251049897	-6.659487379902722	7.994670307786567	0.139533319482304	0	0	0	0	0	0	32.43864807557519	-32.43864807557519	4.444024226366444	77.146263666007	85.55597602217287	0	0	32.43864807557519	-32.43864807557519	4.444024226366444	77.146263666007	85.55597602206971	0	0
13.19999999999981	-1.02662416169416	0.2348040326461276	100.2589482292103	0	0.9399999999999999	0	23.73407981609624	1.813006725059178	-3.714695172060803	31.84347370080927	0.5557734613513454	0	0	0	2.081357476750205	5.350431604043414	-6.245025902039021	7.997247512234928	0.139578300185425	0	0	0	0	0	0	32.44294796343747	-32.44294796343747	4.444399641862236	77.15160145104076	85.55560060669625	0	0	32.44294796343747	-32.44294796343747	4.444399641862236	77.15160145104076	85.55560060659319	0	0
13.21999999999981	-1.042043100331301	0.5910133629669704	101.0297179389786	0	0.9399999999999999	0	23.3584838129942	2.229590792546281	-4.963202236730687	25.1590796841381	0.4391087772598248	0	0	0	1.049510055943304	5.2621823221706	-5.3006954699705	8.018670997035482	0.1399522105324456	0	0	0	0	0	0	32.44824345747948	-32.44824345747948	4.444861616155801	77.15816980409055	85.55513863242639	0	0	32.44824345747948	-32.44824345747948	4.444861616155801	77.15816980409055	85.55513863232336	0	0
13.23999999999981	-1.045772854180798	0.6806798234846313	101.2276870916707	0	0.9399999999999999	0	23.03083769000638	2.895935530713111	-6.08173090910167	20.77568637028273	0.3626041315231435	0	0	0	0.3089652076727564	5.244697034320554	-4.823855179760096	7.993475940836337	0.1395124738465455	0	0	0	0	0	0	32.45102802746057	-32.45102802746057	4.445106423628906	77.16165103345655	85.5548938249658	0	0	32.45102802746057	-32.45102802746057	4.445106423628906	77.16165103345655	85.55489382486283	0	0
13.25999999999981	-1.122053873390977	0.837521692918784	101.4784013220671	0	0.9399999999999999	0	22.84323821687504	3.832815805877927	-7.234125511852176	13.23364818822635	0.2309707329351322	0	0	0	-0.6184827064087733	5.194281365620454	-4.528335152864412	7.939521864115491	0.1385707975628931	0	0	0	0	0	0	32.45656448349766	-32.45656448349766	4.445591872470705	77.1685537762132	85.55440837614877	0	0	32.45656448349766	-32.45656448349766	4.445591872470705	77.1685537762132	85.55440837604588	0	0
13.27999999999981	-1.163574553630855	0.8225512725202879	101.6853065862243	0	0.9399999999999999	0	22.99688435848083	4.207983141454317	-7.465539457904205	10.14936840587592	0.177139895680423	0	0	0	-1.371454981837933	5.128344725591329	-4.277108872911353	7.576161050443869	0.1322289549915977	0	0	0	0	0	0	32.46027854320184	-32.46027854320184	4.445915357842288	77.17315285273455	85.5540848907938	0	1.077613842297402e-35	32.46027854320184	-32.46027854320184	4.445915357842288	77.17315285273455	85.55408489069094	0	1.077613842297402e-35
13.29999999999981	-1.263279498737239	0.734487536962986	101.8742611759865	0	0.9399999999999999	0	23.16776161341764	4.222822125700224	-7.156229068397642	7.199881667524201	0.125661640852277	0	0	0	-2.700840341204194	5.184567137453866	-3.717880454265096	6.947869493728364	0.1212631986644315	0	0	0	0	0	0	32.46527290623827	-32.46527290623827	4.446351401239621	77.17935243262289	85.55364884741869	0	0	32.46527290623827	-32.46527290623827	4.446351401239621	77.17935243262289	85.55364884731587	0	0
13.3199999999998	-1.281650704380912	0.6756810080564297	101.9862470869116	0	0.9399999999999999	0	23.0568674160197	4.354180709997332	-6.92716996643935	5.577462820605942	0.09734509012714353	0	0	0	-3.263218622162744	5.238008823901232	-3.55626679867069	7.094088973986327	0.1238152100254878	0	0	0	0	0	0	32.46730279053202	-32.46730279053202	4.446529187521233	77.18188034590169	85.55347106114615	0	0	32.46730279053202	-32.46730279053202	4.446529187521233	77.18188034590169	85.55347106104337	0	0
